#!OML:ASF H:\ManfredETheater\Project 1\Capture day 1\Session 1\subject.ASF
:FULLY-SPECIFIED
:DEGREES
196
root -10.2245 17.8137 -34.7232 -528.198 -28.6492 170.816
lowerback 6.85192 -3.62655 -7.96093
upperback -3.17672 -5.75131 -0.718065
thorax -6.50192 -2.52994 4.3705
lowerneck -19.044 -3.06046 -3.26179
upperneck 5.95835 -3.88095 4.08468
head 4.98375 -1.75271 1.43056
rclavicle -2.82026e-015 6.16232e-015
rhumerus -71.3044 7.12163 -90.8649
rradius 93.3273
rwrist -1.92803
rhand -21.7011 7.81636
rfingers 7.12502
rthumb 4.69738 -22.1116
lclavicle -2.82026e-015 6.16232e-015
lhumerus -40.6603 -13.2448 92.3512
lradius 118.635
lwrist 7.02807
lhand -22.8691 -11.5871
lfingers 7.12502
lthumb 3.56954 18.3628
rfemur -43.6058 -4.70622 13.6588
rtibia 25.4299
rfoot -13.0803 -14.4534
rtoes -23.3176
lfemur 5.59754 -6.09066 -20.5612
ltibia 36.8616
lfoot 14.5506 -7.6665
ltoes -18.8876
197
root -10.3942 17.8469 -35.2031 -528.026 -29.0043 170.729
lowerback 6.14253 -3.92388 -7.65321
upperback -3.40355 -6.06248 -0.606448
thorax -6.31333 -2.70149 4.2961
lowerneck -19.0914 -2.94097 -3.20769
upperneck 6.46858 -3.67476 3.64236
head 5.13376 -1.66872 1.30066
rclavicle -3.96327e-014 4.57205e-015
rhumerus -72.2385 6.52397 -90.1408
rradius 93.8079
rwrist -1.66416
rhand -21.8616 7.7177
rfingers 7.12502
rthumb 4.54243 -22.2136
lclavicle -3.96327e-014 4.57205e-015
lhumerus -41.2755 -13.8057 92.913
lradius 118.718
lwrist 7.3749
lhand -22.6469 -11.1613
lfingers 7.12502
lthumb 3.78411 18.7848
rfemur -42.6332 -3.34343 12.0234
rtibia 21.88
rfoot -12.8274 -16.2627
rtoes -22.9702
lfemur 6.41587 -6.25003 -20.359
ltibia 36.6924
lfoot 17.3452 -7.45603
ltoes -15.3547
198
root -10.5615 17.8666 -35.6787 -527.872 -29.4479 170.636
lowerback 5.52072 -4.21663 -7.33559
upperback -3.63377 -6.38042 -0.486443
thorax -6.18008 -2.87452 4.22874
lowerneck -19.1496 -2.83904 -3.18187
upperneck 6.96968 -3.48176 3.18775
head 5.2849 -1.59561 1.16988
rclavicle -8.64216e-014 -2.62396e-014
rhumerus -73.1314 5.98352 -89.3895
rradius 94.3358
rwrist -1.48756
rhand -21.9712 7.69309
rfingers 7.12502
rthumb 4.43657 -22.2404
lclavicle -8.64216e-014 -2.62396e-014
lhumerus -41.8581 -14.4346 93.4841
lradius 118.746
lwrist 7.71821
lhand -22.4289 -10.832
lfingers 7.12502
lthumb 3.99461 19.1103
rfemur -41.6553 -1.91625 10.3009
rtibia 18.7381
rfoot -12.5227 -18.3786
rtoes -22.2256
lfemur 7.07609 -6.42323 -20.1128
ltibia 36.8891
lfoot 19.3463 -7.2934
ltoes -12.0011
199
root -10.7258 17.8729 -36.1505 -527.754 -29.941 170.529
lowerback 5.00086 -4.49177 -7.046
upperback -3.852 -6.68945 -0.358693
thorax -6.09205 -3.04024 4.18897
lowerneck -19.2342 -2.75297 -3.17979
upperneck 7.45341 -3.30079 2.72163
head 5.43684 -1.53303 1.03763
rclavicle -6.11263e-014 5.96354e-015
rhumerus -73.9704 5.50319 -88.6151
rradius 94.9183
rwrist -1.4043
rhand -22.0482 7.72065
rfingers 7.12502
rthumb 4.36223 -22.2144
lclavicle -6.11263e-014 5.96354e-015
lhumerus -42.3926 -15.1192 94.0652
lradius 118.728
lwrist 8.03303
lhand -22.2142 -10.6202
lfingers 7.12502
lthumb 4.20197 19.3181
rfemur -40.7954 -0.520415 8.59623
rtibia 16.273
rfoot -12.3275 -20.6004
rtoes -21.1043
lfemur 7.56874 -6.585 -19.8435
ltibia 37.521
lfoot 20.5522 -7.16559
ltoes -8.97858
200
root -10.8876 17.866 -36.6176 -527.726 -30.4668 170.423
lowerback 4.6246 -4.74389 -6.77542
upperback -4.03547 -6.98023 -0.221354
thorax -6.04988 -3.1939 4.17742
lowerneck -19.3675 -2.68097 -3.20342
upperneck 7.91353 -3.12912 2.2482
head 5.59103 -1.47967 0.905513
rclavicle 1.69737e-013 -1.59028e-015
rhumerus -74.7371 5.0966 -87.8257
rradius 95.5527
rwrist -1.43752
rhand -22.1176 7.78949
rfingers 7.12502
rthumb 4.29525 -22.1469
lclavicle 1.69737e-013 -1.59028e-015
lhumerus -42.8602 -15.8476 94.6554
lradius 118.67
lwrist 8.2892
lhand -21.997 -10.5292
lfingers 7.12502
lthumb 4.41169 19.4049
rfemur -40.0789 0.622386 7.12047
rtibia 14.6058
rfoot -12.278 -22.5828
rtoes -19.8933
lfemur 7.95739 -6.74175 -19.5557
ltibia 38.5421
lfoot 21.0832 -7.02777
ltoes -6.41389
201
root -11.0469 17.8462 -37.0803 -527.823 -30.9888 170.34
lowerback 4.40726 -4.96 -6.52274
upperback -4.16938 -7.23292 -0.0768362
thorax -6.0486 -3.32557 4.19213
lowerneck -19.5556 -2.62234 -3.23618
upperneck 8.34282 -2.96985 1.76891
head 5.74595 -1.43662 0.770905
rclavicle 7.15625e-014 1.59028e-015
rhumerus -75.4207 4.75184 -87.031
rradius 96.2385
rwrist -1.56969
rhand -22.1922 7.86797
rfingers 7.12502
rthumb 4.22315 -22.0699
lclavicle 7.15625e-014 1.59028e-015
lhumerus -43.2626 -16.6096 95.2548
lradius 118.585
lwrist 8.45411
lhand -21.7643 -10.5575
lfingers 7.12502
lthumb 4.63639 19.3718
rfemur -39.5289 1.34091 6.05762
rtibia 13.8082
rfoot -12.3687 -23.979
rtoes -18.8283
lfemur 8.29912 -6.91177 -19.2672
ltibia 39.8927
lfoot 21.0344 -6.8574
ltoes -4.44755
202
root -11.2037 17.8136 -37.5388 -528.064 -31.4565 170.3
lowerback 4.34456 -5.13053 -6.29365
upperback -4.24464 -7.43159 0.0804035
thorax -6.07578 -3.42721 4.24146
lowerneck -19.8029 -2.56997 -3.2733
upperneck 8.733 -2.81431 1.28207
head 5.89922 -1.3997 0.633298
rclavicle 1.13059e-014 2.38542e-015
rhumerus -76.0068 4.48403 -86.2402
rradius 96.9649
rwrist -1.77681
rhand -22.2904 7.94239
rfingers 7.12502
rthumb 4.12835 -21.9974
lclavicle 1.13059e-014 2.38542e-015
lhumerus -43.5963 -17.3764 95.8622
lradius 118.479
lwrist 8.49945
lhand -21.5116 -10.6839
lfingers 7.12502
lthumb 4.88041 19.2399
rfemur -39.1352 1.54385 5.52021
rtibia 13.8284
rfoot -12.4944 -24.5506
rtoes -18.2274
lfemur 8.62238 -7.0689 -18.9824
ltibia 41.5228
lfoot 20.5344 -6.69113
ltoes -3.25347
